<svg width="67" height="67" viewBox="0 0 67 67" fill="none" xmlns="http://www.w3.org/2000/svg">
<rect opacity="0.1" y="0.116211" width="66.1113" height="66.1113" fill="#C99669"/>
<path d="M25 44.3333C26.3333 31.6667 32.3333 27.6667 43.6667 25" stroke="#C99669" stroke-width="1.5" stroke-linecap="round" stroke-linejoin="round"/>
<path d="M38.2114 22.0791L44.1928 24.8682L41.4037 30.8496" stroke="#C99669" stroke-width="1.5" stroke-linecap="round" stroke-linejoin="round"/>
<path d="M23.6667 26.3333C25.1394 26.3333 26.3333 25.1394 26.3333 23.6667C26.3333 22.1939 25.1394 21 23.6667 21C22.1939 21 21 22.1939 21 23.6667C21 25.1394 22.1939 26.3333 23.6667 26.3333Z" stroke="#C99669" stroke-width="1.5" stroke-linecap="round" stroke-linejoin="round"/>
<path d="M38.3335 43.9898L41.1619 41.1614M41.1619 41.1614L43.9903 38.333M41.1619 41.1614L38.3335 38.333M41.1619 41.1614L43.9903 43.9898" stroke="#C99669" stroke-width="1.5" stroke-linecap="round" stroke-linejoin="round"/>
</svg>
