<svg width="21" height="21" viewBox="0 0 21 21" fill="none" xmlns="http://www.w3.org/2000/svg">
<path fill-rule="evenodd" clip-rule="evenodd" d="M10.8423 15.9928C13.8446 15.9928 16.2786 13.502 16.2786 10.4295C16.2786 7.3569 13.8446 4.86611 10.8423 4.86611C7.83987 4.86611 5.40596 7.3569 5.40596 10.4295C5.40596 13.502 7.83987 15.9928 10.8423 15.9928ZM10.8423 14.1384C12.8438 14.1384 14.4665 12.4778 14.4665 10.4295C14.4665 8.38109 12.8438 6.72056 10.8423 6.72056C8.84066 6.72056 7.21806 8.38109 7.21806 10.4295C7.21806 12.4778 8.84066 14.1384 10.8423 14.1384Z" fill="white"/>
<path d="M16.2783 3.93882C15.7781 3.93882 15.3726 4.35396 15.3726 4.86605C15.3726 5.37813 15.7781 5.79327 16.2783 5.79327C16.7786 5.79327 17.184 5.37813 17.184 4.86605C17.184 4.35396 16.7786 3.93882 16.2783 3.93882Z" fill="white"/>
<path fill-rule="evenodd" clip-rule="evenodd" d="M1.46764 3.26762C0.875122 4.45769 0.875122 6.01557 0.875122 9.13134V11.7276C0.875122 14.8433 0.875122 16.4012 1.46764 17.5912C1.98884 18.6381 2.82048 19.4892 3.8434 20.0225C5.00628 20.6289 6.52859 20.6289 9.5732 20.6289H12.1101C15.1547 20.6289 16.6771 20.6289 17.8399 20.0225C18.8628 19.4892 19.6945 18.6381 20.2157 17.5912C20.8082 16.4012 20.8082 14.8433 20.8082 11.7276V9.13134C20.8082 6.01557 20.8082 4.45769 20.2157 3.26762C19.6945 2.22081 18.8628 1.36972 17.8399 0.836348C16.6771 0.22998 15.1547 0.22998 12.1101 0.22998H9.5732C6.52859 0.22998 5.00628 0.22998 3.8434 0.836348C2.82048 1.36972 1.98884 2.22081 1.46764 3.26762ZM12.1101 2.08443H9.5732C8.02099 2.08443 6.96581 2.08588 6.15022 2.15406C5.35576 2.22049 4.94948 2.34089 4.66607 2.48867C3.98413 2.84426 3.4297 3.41165 3.08223 4.10952C2.93783 4.39956 2.82018 4.81533 2.75527 5.62836C2.68863 6.46302 2.68722 7.54285 2.68722 9.13134V11.7276C2.68722 13.3161 2.68863 14.3958 2.75527 15.2305C2.82018 16.0436 2.93783 16.4594 3.08223 16.7494C3.4297 17.4472 3.98413 18.0146 4.66607 18.3702C4.94948 18.518 5.35576 18.6384 6.15022 18.7048C6.96581 18.773 8.02099 18.7745 9.5732 18.7745H12.1101C13.6624 18.7745 14.7175 18.773 15.5331 18.7048C16.3276 18.6384 16.7339 18.518 17.0173 18.3702C17.6992 18.0146 18.2536 17.4472 18.6011 16.7494C18.7455 16.4594 18.8632 16.0436 18.9281 15.2305C18.9947 14.3958 18.9961 13.3161 18.9961 11.7276V9.13134C18.9961 7.54285 18.9947 6.46302 18.9281 5.62836C18.8632 4.81533 18.7455 4.39956 18.6011 4.10952C18.2536 3.41165 17.6992 2.84426 17.0173 2.48867C16.7339 2.34089 16.3276 2.22049 15.5331 2.15406C14.7175 2.08588 13.6624 2.08443 12.1101 2.08443Z" fill="white"/>
</svg>
