<svg width="16" height="17" viewBox="0 0 16 17" fill="none" xmlns="http://www.w3.org/2000/svg">
<path d="M13.9945 16.3279C13.5804 16.3279 13.2039 16.3279 12.781 16.3279C12.781 16.1935 12.7811 16.0735 12.781 15.9535C12.7804 14.2984 12.788 12.6433 12.7729 10.9883C12.7693 10.5907 12.7263 10.1855 12.6379 9.79812C12.4598 9.01771 12.0213 8.66685 11.2444 8.61365C10.3781 8.55434 9.70241 8.87612 9.47212 9.58737C9.3019 10.1131 9.22534 10.6872 9.21337 11.242C9.17984 12.796 9.20142 14.3513 9.20126 15.9061C9.20125 16.0415 9.20126 16.177 9.20126 16.3293C8.12256 16.3293 7.08044 16.3293 6.01129 16.3293C6.01129 12.9235 6.01129 9.51063 6.01129 6.08359C7.02107 6.08359 8.02336 6.08359 9.0616 6.08359C9.0616 6.52516 9.0616 6.95599 9.0616 7.50036C9.634 6.5996 10.3663 6.09279 11.3019 5.90446C12.2095 5.72178 13.1073 5.78564 13.9702 6.13047C15.0751 6.57201 15.5796 7.48071 15.7999 8.57629C15.8932 9.04069 15.956 9.5193 15.9598 9.99203C15.9767 12.0856 15.9671 14.1794 15.9671 16.3279C15.3292 16.3279 14.6807 16.3279 13.9945 16.3279Z" fill="white"/>
<path d="M3.26049 6.06913C3.50936 6.06913 3.72045 6.06913 3.95003 6.06913C3.95003 9.5 3.95003 12.9009 3.95003 16.3243C2.8955 16.3243 1.84693 16.3243 0.781239 16.3243C0.781239 12.917 0.781239 9.51438 0.781239 6.06913C1.59801 6.06913 2.41036 6.06913 3.26049 6.06913Z" fill="white"/>
<path d="M3.64688 4.1364C2.93895 4.71351 2.1987 4.81039 1.49833 4.43348C0.802771 4.05915 0.436244 3.32775 0.53559 2.51235C0.621195 1.80974 1.15987 1.20541 1.88016 1.0039C2.65971 0.785819 3.50908 1.11788 3.94139 1.80974C4.40503 2.55174 4.30586 3.38549 3.64688 4.1364Z" fill="white"/>
</svg>
