<svg width="170" height="37" viewBox="0 0 170 37" fill="none" xmlns="http://www.w3.org/2000/svg">
<path d="M49.7763 31.8373C42.2863 31.8373 38.0863 26.5873 38.0863 18.7123C38.0863 10.3473 42.8463 5.6573 49.9513 5.6573C56.1813 5.6573 60.1713 9.1223 60.9063 14.3023L57.1613 14.8273C56.4613 10.8373 53.6613 8.9823 49.9163 8.9823C44.4913 8.9823 41.9363 12.8673 41.9363 18.7123C41.9363 25.3623 45.1213 28.4773 49.8813 28.4773C54.1863 28.4773 56.6363 26.1323 57.2663 22.5973L60.9413 23.0173C60.1713 28.6523 55.7613 31.8373 49.7763 31.8373ZM72.1886 31.8373C66.4486 31.8373 62.7736 27.7773 62.7736 21.6873C62.7736 15.4923 66.4836 11.4323 72.1886 11.4323C77.8586 11.4323 81.5336 15.4923 81.5336 21.6523C81.5336 27.8123 77.8586 31.8373 72.1886 31.8373ZM72.1536 28.7573C75.7936 28.7573 77.9286 26.0973 77.9286 21.6173C77.9286 17.1023 75.7936 14.5123 72.1886 14.5123C68.5136 14.5123 66.3786 17.2073 66.3786 21.6523C66.3786 26.1323 68.5136 28.7573 72.1536 28.7573ZM84.4094 31.4873V11.7823H87.6994L87.9094 14.7573C89.5894 12.4823 91.6544 11.4323 94.3494 11.4323C98.3044 11.4323 101.139 13.6723 101.139 18.3273V31.4873H97.5694V18.6773C97.5694 16.2273 96.1694 14.6523 93.3344 14.6523C90.4294 14.6523 88.0144 16.5773 88.0144 19.7973V31.4873H84.4094ZM112.098 31.8373C107.128 31.8373 103.943 29.4223 103.803 25.3973L107.303 25.0123C107.303 27.4623 109.193 29.1423 112.203 29.1423C114.758 29.1423 116.473 28.3023 116.473 26.1673C116.473 23.5773 113.848 23.4373 110.488 22.7023C106.463 21.8273 104.643 20.1123 104.643 17.0673C104.643 13.6723 107.548 11.4323 112.098 11.4323C116.648 11.4323 119.658 13.4273 119.903 17.4523L116.438 17.9073C116.438 15.6323 115.003 14.0923 111.993 14.0923C109.613 14.0923 108.283 15.2123 108.283 16.7873C108.283 18.8173 109.928 19.4473 113.813 20.1823C117.768 20.9173 120.183 22.1773 120.183 26.0623C120.183 29.5273 117.593 31.8373 112.098 31.8373ZM131.382 31.8373C125.712 31.8373 121.967 28.0923 121.967 21.6523C121.967 15.4923 125.362 11.4323 131.242 11.4323C136.807 11.4323 140.447 15.1073 139.992 22.5273H125.537C125.782 26.7973 127.882 28.8623 131.417 28.8623C134.287 28.8623 136.142 27.4973 136.562 25.1523L139.747 25.8873C139.047 29.4573 135.897 31.8373 131.382 31.8373ZM131.172 14.2673C128.267 14.2673 126.097 15.9123 125.607 19.8323H136.317C136.387 16.4723 134.497 14.2673 131.172 14.2673ZM142.544 31.4873V3.8373H146.114V31.4873H142.544ZM158.472 31.8373C152.732 31.8373 149.057 27.7773 149.057 21.6873C149.057 15.4923 152.767 11.4323 158.472 11.4323C164.142 11.4323 167.817 15.4923 167.817 21.6523C167.817 27.8123 164.142 31.8373 158.472 31.8373ZM158.437 28.7573C162.077 28.7573 164.212 26.0973 164.212 21.6173C164.212 17.1023 162.077 14.5123 158.472 14.5123C154.797 14.5123 152.662 17.2073 152.662 21.6523C152.662 26.1323 154.797 28.7573 158.437 28.7573Z" fill="#FFEFE6"/>
<path d="M29.216 4.31044C19.8848 -2.3218 11.0574 1.54701 7.81017 4.31044C7.30826 4.70636 7.42402 5.25273 7.54464 5.47643C11.5185 12.4765 16.0811 13.8074 21.2097 12.742C26.3384 11.6766 29.216 6.19847 29.5574 5.47643C29.8305 4.89879 29.4436 4.45842 29.216 4.31044Z" fill="#FFEFE6"/>
<path d="M29.216 32.6632C19.8848 39.2954 11.0574 35.4266 7.81017 32.6632C7.30826 32.2673 7.42402 31.7209 7.54464 31.4972C11.5185 24.4971 16.0811 23.1663 21.2097 24.2316C26.3384 25.297 29.216 30.7752 29.5574 31.4972C29.8305 32.0748 29.4436 32.5152 29.216 32.6632Z" fill="#C99669"/>
<path d="M4.41536 29.2014C-2.21688 19.8701 1.65193 11.0428 4.41536 7.79552C4.81128 7.29361 5.35765 7.40937 5.58135 7.52999C12.5814 11.5039 13.9123 16.0665 12.8469 21.1951C11.7816 26.3237 6.30339 29.2014 5.58135 29.5427C5.00371 29.8158 4.56334 29.4289 4.41536 29.2014Z" fill="#FFEFE6"/>
<circle cx="18.5459" cy="18.4828" r="3.35974" fill="#C99669"/>
</svg>
